<svg width="272" height="272" viewBox="0 0 272 272" fill="none" xmlns="http://www.w3.org/2000/svg">
<path d="M136 271C112.305 271 89.0273 264.763 68.5061 252.917C47.985 241.071 30.9433 224.032 19.0936 203.512C7.24396 182.993 1.00372 159.716 0.999998 136.021C0.996273 112.326 7.2292 89.0475 19.0724 68.5245L136 136L136 271Z" fill="#FF5858" stroke="black" stroke-width="2"/>
<path d="M105.193 237.059C106.054 238.55 107.156 239.466 108.5 239.805C109.844 240.145 111.256 239.887 112.735 239.033C114.214 238.179 115.132 237.068 115.489 235.698C115.839 234.315 115.583 232.879 114.722 231.387C114.288 230.636 113.782 230.039 113.203 229.597L109.384 231.802L111.516 235.494L109.57 236.617L106.042 230.507L113.225 226.359C114.694 227.419 115.911 228.785 116.877 230.458C118.144 232.653 118.543 234.758 118.075 236.775C117.594 238.798 116.311 240.412 114.226 241.616C112.128 242.827 110.103 243.156 108.151 242.602C106.198 242.048 104.585 240.667 103.311 238.461C102.373 236.836 101.938 235.187 102.007 233.515L104.285 233.218C104.26 234.687 104.563 235.968 105.193 237.059ZM112.245 222.855L98.6049 230.73L97.1664 228.238L110.806 220.363L112.245 222.855ZM97.4753 223.733L95.2929 224.993L93.8544 222.502L96.0368 221.242L97.4753 223.733ZM108.933 217.118L99.4758 222.578L98.0373 220.087L107.494 214.627L108.933 217.118ZM99.4646 205.927L100.914 204.363C101.936 205.098 102.756 205.999 103.372 207.066C104.247 208.582 104.508 210.056 104.154 211.488C103.801 212.92 102.873 214.071 101.37 214.939C99.8299 215.828 98.3741 216.078 97.0023 215.69C95.6113 215.297 94.4608 214.312 93.5508 212.736C92.9348 211.669 92.5641 210.509 92.4387 209.256L94.5542 208.762C94.5587 209.778 94.8095 210.716 95.3065 211.577C95.8035 212.438 96.4587 212.957 97.2722 213.134C98.0787 213.298 98.979 213.094 99.9732 212.52C100.943 211.96 101.563 211.27 101.834 210.451C102.098 209.62 101.995 208.798 101.526 207.986C101.022 207.113 100.335 206.427 99.4646 205.927ZM91.392 205.931C90.017 205.593 88.9129 204.703 88.0799 203.26C87.2469 201.817 87.028 200.416 87.423 199.056C87.8181 197.697 88.7674 196.583 90.2708 195.715C91.7742 194.847 93.2135 194.582 94.5885 194.919C95.9636 195.257 97.0676 196.147 97.9006 197.59C98.7336 199.033 98.9526 200.434 98.5575 201.794C98.1555 203.141 97.2027 204.249 95.6993 205.117C94.1959 205.985 92.7601 206.256 91.392 205.931ZM96.1002 198.63C95.6732 197.89 95.08 197.465 94.3207 197.353C93.5492 197.249 92.6542 197.491 91.6358 198.079C90.6173 198.667 89.9664 199.318 89.6831 200.031C89.3876 200.751 89.4534 201.481 89.8804 202.221C90.3004 202.948 90.8961 203.364 91.6676 203.468C92.4269 203.579 93.3158 203.341 94.3343 202.753C95.3527 202.165 96.0097 201.511 96.3052 200.791C96.5885 200.077 96.5202 199.357 96.1002 198.63ZM84.4612 196.572L83.1802 194.354L84.4868 193.551L84.4658 193.514C83.783 193.424 83.1542 193.188 82.5794 192.809C81.9977 192.417 81.5423 191.937 81.2133 191.367C80.5833 190.276 80.4608 189.279 80.8458 188.378C81.2116 187.472 82.1584 186.578 83.686 185.696L89.0147 182.619L90.3587 184.947L85.2665 187.887C84.2238 188.489 83.5906 189.016 83.3668 189.469C83.131 189.928 83.195 190.473 83.559 191.104C83.867 191.637 84.4233 191.971 85.2279 192.104C86.0255 192.226 86.7881 192.077 87.5155 191.657L92.5532 188.748L93.9182 191.112L84.4612 196.572ZM81.1325 181.651L78.5705 177.213C77.7894 177.68 77.3047 178.227 77.1165 178.853C76.9091 179.474 77.005 180.13 77.404 180.821C77.789 181.488 78.3091 181.899 78.9645 182.054C79.6128 182.197 80.3355 182.062 81.1325 181.651ZM82.7511 180.716C83.4314 180.243 83.8437 179.641 83.9881 178.911C84.1133 178.176 83.9589 177.432 83.5249 176.681C83.0069 175.783 82.2681 175.022 81.3085 174.396L82.6667 172.884C83.7817 173.695 84.6892 174.707 85.3892 175.92C86.2152 177.35 86.4446 178.77 86.0775 180.178C85.7035 181.574 84.7647 182.706 83.2613 183.574C81.7336 184.456 80.2953 184.737 78.9464 184.416C77.5974 184.096 76.5169 183.232 75.7049 181.826C74.8929 180.42 74.6812 179.087 75.0698 177.828C75.4514 176.557 76.4242 175.47 77.9882 174.567C78.2913 174.392 78.605 174.235 78.9291 174.096L82.7511 180.716ZM72.8632 173.838C71.4881 173.5 70.3841 172.61 69.5511 171.167C68.7181 169.724 68.4991 168.323 68.8942 166.964C69.2893 165.604 70.2386 164.49 71.742 163.622C73.2454 162.754 74.6846 162.489 76.0597 162.827C77.4348 163.164 78.5388 164.054 79.3718 165.497C80.2048 166.94 80.4238 168.341 80.0287 169.701C79.6266 171.049 78.6739 172.156 77.1705 173.024C75.6671 173.892 74.2313 174.164 72.8632 173.838ZM77.5714 166.537C77.1444 165.797 76.5512 165.372 75.7919 165.261C75.0204 165.156 74.1254 165.398 73.107 165.986C72.0885 166.574 71.4376 167.225 71.1543 167.938C70.8588 168.658 70.9246 169.388 71.3516 170.128C71.7716 170.855 72.3673 171.271 73.1388 171.375C73.8981 171.487 74.787 171.248 75.8055 170.66C76.8239 170.072 77.4809 169.418 77.7764 168.698C78.0597 167.985 77.9914 167.264 77.5714 166.537ZM63.8105 161.224C63.1105 160.012 63.0466 158.739 63.619 157.406L63.598 157.37L62.2388 158.082L60.9683 155.881L69.4615 150.978C72.8927 148.997 75.5637 149.661 77.4747 152.971C78.1047 154.063 78.5179 155.198 78.7142 156.378L76.6904 156.989C76.5501 155.906 76.228 154.928 75.724 154.055C75.178 153.109 74.5339 152.568 73.7918 152.43C73.0497 152.293 72.0725 152.574 70.86 153.274L70.1871 153.663L70.2081 153.699C71.5407 153.851 72.5605 154.54 73.2675 155.764C73.8835 156.831 73.9736 157.967 73.5379 159.173C73.0831 160.373 72.1343 161.389 70.6915 162.222C69.1638 163.104 67.8048 163.453 66.6145 163.267C65.4171 163.069 64.4825 162.388 63.8105 161.224ZM69.379 159.949C70.2883 159.424 70.8916 158.817 71.189 158.128C71.4672 157.434 71.4243 156.772 71.0603 156.141C70.6753 155.474 70.1188 155.084 69.3907 154.971C68.6626 154.858 67.856 155.057 66.9709 155.568L66.789 155.673C65.904 156.184 65.3284 156.783 65.0623 157.47C64.7962 158.157 64.8556 158.834 65.2406 159.501C65.6256 160.168 66.1752 160.546 66.8893 160.635C67.6034 160.724 68.4333 160.495 69.379 159.949ZM53.6799 151.321L56.6756 151.386L58.1666 153.969L53.6869 153.476L51.7969 150.202L53.6096 146.076L55.1006 148.658L53.6589 151.285L53.6799 151.321ZM62.4909 149.363L59.9289 144.925C59.1478 145.392 58.6631 145.939 58.4749 146.565C58.2675 147.186 58.3634 147.842 58.7624 148.533C59.1474 149.199 59.6675 149.61 60.3229 149.766C60.9712 149.908 61.6939 149.774 62.4909 149.363ZM64.1095 148.428C64.7898 147.954 65.2021 147.353 65.3465 146.623C65.4717 145.888 65.3173 145.144 64.8833 144.392C64.3653 143.495 63.6265 142.734 62.6669 142.108L64.0251 140.596C65.1401 141.407 66.0476 142.419 66.7476 143.631C67.5736 145.062 67.803 146.481 67.4359 147.89C67.0619 149.286 66.1231 150.418 64.6197 151.286C63.092 152.168 61.6537 152.449 60.3048 152.128C58.9558 151.808 57.8753 150.944 57.0633 149.538C56.2513 148.131 56.0396 146.799 56.4282 145.54C56.8098 144.269 57.7826 143.182 59.3466 142.279C59.6497 142.104 59.9634 141.947 60.2875 141.808L64.1095 148.428ZM53.5354 143.007L52.2544 140.788L53.561 139.986L53.54 139.949C52.8572 139.859 52.2284 139.623 51.6537 139.244C51.0719 138.852 50.6165 138.372 50.2875 137.802C49.6575 136.711 49.535 135.714 49.92 134.813C50.2858 133.907 51.2326 133.013 52.7603 132.131L58.0889 129.054L59.4329 131.382L54.3407 134.322C53.298 134.924 52.6648 135.451 52.441 135.904C52.2052 136.363 52.2693 136.908 52.6333 137.539C52.9413 138.072 53.4976 138.406 54.3022 138.539C55.0998 138.661 55.8623 138.512 56.5897 138.092L61.6274 135.183L62.9924 137.547L53.5354 143.007ZM50.2067 128.086L47.6447 123.648C46.8636 124.115 46.3789 124.662 46.1907 125.288C45.9834 125.909 46.0792 126.565 46.4782 127.256C46.8632 127.923 47.3834 128.334 48.0387 128.489C48.6871 128.632 49.4097 128.497 50.2067 128.086ZM51.8253 127.151C52.5056 126.678 52.918 126.076 53.0623 125.346C53.1875 124.611 53.0332 123.867 52.5992 123.116C52.0812 122.218 51.3424 121.457 50.3828 120.831L51.7409 119.319C52.8559 120.13 53.7634 121.142 54.4634 122.355C55.2894 123.785 55.5188 125.205 55.1518 126.613C54.7777 128.009 53.8389 129.141 52.3355 130.009C50.8078 130.891 49.3695 131.172 48.0206 130.851C46.6716 130.531 45.5911 129.667 44.7791 128.261C43.9671 126.855 43.7554 125.522 44.144 124.263C44.5256 122.992 45.4984 121.905 47.0625 121.002C47.3656 120.827 47.6792 120.67 48.0033 120.531L51.8253 127.151ZM39.7102 113.769C39.8305 115.042 40.1706 116.163 40.7306 117.133C41.3746 118.248 42.024 118.617 42.6787 118.239C42.994 118.057 43.1664 117.796 43.1962 117.455C43.2259 117.115 43.1082 116.617 42.8431 115.962C42.2601 114.504 42.0552 113.337 42.2284 112.461C42.3895 111.592 42.9126 110.902 43.7977 110.391C44.6706 109.887 45.5577 109.827 46.4589 110.212C47.341 110.592 48.1356 111.394 48.8426 112.619C49.6896 114.086 50.139 115.564 50.1908 117.054L48.146 117.628C48.1451 116.255 47.8016 114.974 47.1156 113.786C46.5066 112.731 45.8505 112.407 45.1473 112.813C44.82 113.002 44.6405 113.251 44.6088 113.56C44.5651 113.876 44.6707 114.381 44.9256 115.075C45.4773 116.534 45.6727 117.699 45.5116 118.568C45.3435 119.424 44.8351 120.098 43.9863 120.588C43.1498 121.071 42.3 121.125 41.437 120.75C40.5549 120.37 39.7499 119.55 39.0219 118.289C38.2939 117.028 37.8417 115.713 37.6655 114.344L39.7102 113.769ZM38.7018 108.159L36.1398 103.721C35.3587 104.188 34.8741 104.735 34.6858 105.361C34.4785 105.982 34.5743 106.638 34.9733 107.329C35.3583 107.996 35.8785 108.407 36.5338 108.562C37.1822 108.705 37.9048 108.57 38.7018 108.159ZM40.3204 107.224C41.0007 106.751 41.4131 106.149 41.5574 105.419C41.6827 104.684 41.5283 103.94 41.0943 103.189C40.5763 102.291 39.8375 101.53 38.8779 100.904L40.236 99.3921C41.351 100.203 42.2585 101.215 42.9585 102.427C43.7845 103.858 44.014 105.278 43.6469 106.686C43.2728 108.082 42.3341 109.214 40.8306 110.082C39.303 110.964 37.8647 111.245 36.5157 110.924C35.1667 110.604 34.0863 109.74 33.2743 108.334C32.4623 106.927 32.2506 105.595 32.6391 104.336C33.0207 103.065 33.9935 101.978 35.5576 101.075C35.8607 100.9 36.1743 100.743 36.4984 100.604L40.3204 107.224Z" fill="white"/>
<path d="M19.0866 68.5C30.9341 47.9795 47.974 30.9387 68.4939 19.0901C89.0138 7.24152 112.291 1.00251 135.986 1.00003C159.681 0.997557 182.959 7.23171 203.482 19.076C224.004 30.9203 241.047 47.9575 252.899 68.4756L136 136L19.0866 68.5Z" fill="#75FF9C" stroke="black" stroke-width="2"/>
<path d="M100.265 58.791C98.5429 58.791 97.1989 59.288 96.2329 60.282C95.2669 61.276 94.7839 62.627 94.7839 64.335C94.7839 66.043 95.2879 67.394 96.2959 68.388C97.3179 69.382 98.6899 69.879 100.412 69.879C101.28 69.879 102.05 69.739 102.722 69.459V65.049H98.4589V62.802L105.515 62.802V71.097C103.863 71.839 102.071 72.21 100.139 72.21C97.6049 72.21 95.5819 71.503 94.0699 70.089C92.5579 68.661 91.8019 66.743 91.8019 64.335C91.8019 61.913 92.5299 59.995 93.9859 58.581C95.4419 57.167 97.4439 56.46 99.9919 56.46C101.868 56.46 103.513 56.908 104.927 57.804L104.045 59.925C102.785 59.169 101.525 58.791 100.265 58.791ZM109.04 72L109.04 56.25H111.917L111.917 72H109.04ZM115.664 58.77V56.25H118.541V58.77H115.664ZM115.664 72L115.664 61.08H118.541L118.541 72H115.664ZM130.09 69.396L130.72 71.433C129.572 71.951 128.382 72.21 127.15 72.21C125.4 72.21 123.993 71.699 122.929 70.677C121.865 69.655 121.333 68.276 121.333 66.54C121.333 64.762 121.844 63.376 122.866 62.382C123.902 61.374 125.33 60.87 127.15 60.87C128.382 60.87 129.572 61.129 130.72 61.647L130.09 63.726C129.208 63.222 128.27 62.97 127.276 62.97C126.282 62.97 125.505 63.278 124.945 63.894C124.399 64.51 124.126 65.392 124.126 66.54C124.126 67.66 124.413 68.542 124.987 69.186C125.575 69.83 126.338 70.152 127.276 70.152C128.284 70.152 129.222 69.9 130.09 69.396ZM138.386 55.977H141.872L138.659 59.61H136.139L138.386 55.977ZM134.123 62.403C135.103 61.381 136.426 60.87 138.092 60.87C139.758 60.87 141.081 61.381 142.061 62.403C143.041 63.425 143.531 64.804 143.531 66.54C143.531 68.276 143.041 69.655 142.061 70.677C141.081 71.699 139.758 72.21 138.092 72.21C136.426 72.21 135.103 71.699 134.123 70.677C133.157 69.655 132.674 68.276 132.674 66.54C132.674 64.804 133.157 63.425 134.123 62.403ZM138.092 70.131C138.946 70.131 139.611 69.83 140.087 69.228C140.563 68.612 140.801 67.716 140.801 66.54C140.801 65.364 140.563 64.475 140.087 63.873C139.611 63.257 138.946 62.949 138.092 62.949C137.252 62.949 136.594 63.257 136.118 63.873C135.642 64.475 135.404 65.364 135.404 66.54C135.404 67.716 135.642 68.612 136.118 69.228C136.594 69.83 137.252 70.131 138.092 70.131ZM146.323 72V56.25H149.2V72H146.323ZM152.947 58.77V56.25H155.824V58.77H152.947ZM152.947 72V61.08H155.824V72H152.947ZM167.016 63.726C165.854 63.194 164.713 62.928 163.593 62.928C162.305 62.928 161.661 63.306 161.661 64.062C161.661 64.426 161.801 64.706 162.081 64.902C162.361 65.098 162.851 65.245 163.551 65.343C165.105 65.567 166.218 65.973 166.89 66.561C167.562 67.135 167.898 67.933 167.898 68.955C167.898 69.963 167.506 70.761 166.722 71.349C165.952 71.923 164.86 72.21 163.446 72.21C161.752 72.21 160.247 71.86 158.931 71.16L159.456 69.102C160.646 69.788 161.927 70.131 163.299 70.131C164.517 70.131 165.126 69.725 165.126 68.913C165.126 68.535 165 68.255 164.748 68.073C164.496 67.877 164.006 67.716 163.278 67.59C161.738 67.338 160.632 66.925 159.96 66.351C159.302 65.777 158.973 65 158.973 64.02C158.973 63.054 159.351 62.291 160.107 61.731C160.877 61.157 161.99 60.87 163.446 60.87C164.902 60.87 166.267 61.136 167.541 61.668L167.016 63.726ZM172.38 65.658H177.504C177.49 64.748 177.259 64.055 176.811 63.579C176.377 63.089 175.761 62.844 174.963 62.844C174.193 62.844 173.577 63.089 173.115 63.579C172.667 64.069 172.422 64.762 172.38 65.658ZM172.38 67.527C172.45 68.353 172.765 69.011 173.325 69.501C173.899 69.977 174.62 70.215 175.488 70.215C176.524 70.215 177.553 69.956 178.575 69.438L179.205 71.37C177.945 71.93 176.615 72.21 175.215 72.21C173.563 72.21 172.219 71.699 171.183 70.677C170.161 69.655 169.65 68.276 169.65 66.54C169.65 64.776 170.126 63.39 171.078 62.382C172.03 61.374 173.318 60.87 174.942 60.87C176.566 60.87 177.826 61.353 178.722 62.319C179.632 63.285 180.087 64.671 180.087 66.477C180.087 66.827 180.066 67.177 180.024 67.527H172.38Z" fill="white"/>
<path d="M252.913 68.5001C264.761 89.0206 270.999 112.298 271 135.993C271.001 159.688 264.766 182.966 252.92 203.488C241.075 224.01 224.037 241.052 203.518 252.903C183 264.754 159.723 270.995 136.028 271L136 136L252.913 68.5001Z" fill="#53C1FF" stroke="black" stroke-width="2"/>
<path d="M229.659 128.197C230.52 126.705 230.761 125.293 230.383 123.959C230.006 122.626 229.077 121.532 227.598 120.678C226.119 119.824 224.697 119.585 223.332 119.961C221.96 120.349 220.844 121.289 219.983 122.78C219.549 123.532 219.285 124.269 219.191 124.991L223.01 127.196L225.142 123.504L227.088 124.627L223.56 130.738L216.376 126.59C216.56 124.789 217.134 123.051 218.1 121.378C219.367 119.184 220.991 117.785 222.972 117.183C224.964 116.587 227.003 116.892 229.089 118.096C231.186 119.307 232.483 120.896 232.98 122.864C233.477 124.832 233.088 126.919 231.814 129.126C230.876 130.75 229.665 131.951 228.182 132.728L226.787 130.903C228.071 130.19 229.029 129.288 229.659 128.197ZM213.832 129.192L227.472 137.067L226.033 139.558L212.393 131.683L213.832 129.192ZM221.977 141.543L224.16 142.803L222.721 145.295L220.539 144.035L221.977 141.543ZM210.52 134.928L219.977 140.388L218.538 142.88L209.081 137.42L210.52 134.928ZM205.562 148.724L203.483 148.251C203.608 146.998 203.979 145.837 204.595 144.77C205.47 143.255 206.616 142.292 208.033 141.881C209.45 141.471 210.91 141.7 212.414 142.568C213.953 143.457 214.898 144.592 215.248 145.974C215.603 147.376 215.325 148.864 214.415 150.44C213.799 151.507 212.98 152.409 211.958 153.144L210.472 151.559C211.35 151.047 212.037 150.36 212.534 149.5C213.031 148.639 213.153 147.812 212.899 147.019C212.639 146.238 212.011 145.561 211.017 144.987C210.047 144.427 209.14 144.234 208.295 144.409C207.443 144.597 206.783 145.096 206.314 145.909C205.81 146.782 205.559 147.72 205.562 148.724ZM209.601 155.713C209.997 157.072 209.778 158.474 208.945 159.916C208.112 161.359 207.008 162.249 205.632 162.587C204.257 162.925 202.818 162.66 201.315 161.792C199.811 160.924 198.862 159.81 198.467 158.45C198.072 157.09 198.291 155.689 199.124 154.246C199.957 152.804 201.061 151.913 202.436 151.576C203.804 151.25 205.24 151.521 206.743 152.389C208.247 153.257 209.199 154.365 209.601 155.713ZM200.924 155.286C200.497 156.025 200.425 156.752 200.709 157.465C201.004 158.185 201.661 158.839 202.68 159.427C203.698 160.015 204.587 160.254 205.346 160.143C206.118 160.038 206.717 159.616 207.144 158.877C207.564 158.149 207.626 157.426 207.331 156.705C207.048 155.992 206.397 155.342 205.378 154.754C204.36 154.166 203.465 153.924 202.693 154.028C201.934 154.139 201.344 154.558 200.924 155.286ZM203.204 169.859C202.504 171.072 201.434 171.763 199.993 171.934L199.972 171.971L201.269 172.792L199.998 174.992L191.505 170.089C188.074 168.108 187.314 165.462 189.225 162.152C189.855 161.061 190.632 160.135 191.555 159.376L193.096 160.823C192.228 161.486 191.542 162.254 191.038 163.127C190.492 164.072 190.346 164.901 190.598 165.612C190.85 166.324 191.582 167.029 192.794 167.729L193.467 168.118L193.488 168.081C192.954 166.851 193.04 165.624 193.747 164.399C194.363 163.333 195.302 162.686 196.564 162.461C197.83 162.255 199.185 162.568 200.628 163.401C202.156 164.283 203.137 165.286 203.571 166.41C203.998 167.546 203.876 168.696 203.204 169.859ZM199.315 165.675C198.406 165.15 197.579 164.931 196.833 165.017C196.093 165.124 195.541 165.492 195.177 166.122C194.792 166.789 194.733 167.466 194.999 168.153C195.265 168.84 195.84 169.439 196.726 169.95L196.907 170.055C197.792 170.566 198.599 170.765 199.327 170.652C200.055 170.539 200.612 170.149 200.997 169.482C201.382 168.816 201.434 168.151 201.154 167.488C200.874 166.825 200.261 166.221 199.315 165.675ZM199.693 183.584L198.251 180.957L199.742 178.375L201.555 182.501L199.665 185.775L195.185 186.268L196.676 183.685L199.672 183.621L199.693 183.584ZM193.591 176.933L191.029 181.371C191.824 181.813 192.54 181.96 193.176 181.81C193.818 181.679 194.338 181.268 194.737 180.577C195.122 179.91 195.218 179.254 195.024 178.609C194.824 177.976 194.346 177.417 193.591 176.933ZM191.973 175.999C191.222 175.646 190.495 175.59 189.791 175.83C189.091 176.089 188.525 176.594 188.091 177.346C187.573 178.243 187.283 179.264 187.22 180.408L185.232 179.988C185.377 178.617 185.8 177.325 186.5 176.112C187.326 174.682 188.44 173.773 189.843 173.387C191.239 173.013 192.689 173.26 194.192 174.128C195.72 175.01 196.682 176.115 197.079 177.444C197.476 178.772 197.269 180.139 196.457 181.546C195.645 182.952 194.597 183.802 193.312 184.095C192.02 184.4 190.593 184.101 189.028 183.198C188.725 183.023 188.433 182.83 188.151 182.618L191.973 175.999ZM192.565 187.866L191.284 190.085L189.936 189.355L189.915 189.391C190.177 190.028 190.288 190.69 190.247 191.378C190.199 192.077 190.01 192.712 189.681 193.282C189.051 194.373 188.25 194.977 187.277 195.094C186.309 195.231 185.061 194.858 183.533 193.976L178.205 190.899L179.549 188.572L184.641 191.512C185.684 192.114 186.457 192.398 186.961 192.366C187.476 192.34 187.916 192.012 188.28 191.382C188.588 190.848 188.599 190.2 188.312 189.436C188.019 188.685 187.508 188.099 186.781 187.679L181.743 184.771L183.108 182.406L192.565 187.866ZM181.307 198.21L178.745 202.647C179.54 203.09 180.256 203.237 180.892 203.087C181.533 202.956 182.054 202.545 182.453 201.854C182.838 201.187 182.933 200.531 182.74 199.886C182.54 199.253 182.062 198.694 181.307 198.21ZM179.688 197.275C178.938 196.923 178.211 196.867 177.506 197.107C176.807 197.366 176.241 197.871 175.807 198.623C175.289 199.52 174.998 200.541 174.936 201.685L172.948 201.265C173.093 199.893 173.515 198.602 174.215 197.389C175.041 195.958 176.156 195.05 177.559 194.664C178.955 194.29 180.405 194.537 181.908 195.405C183.436 196.287 184.398 197.392 184.795 198.72C185.192 200.049 184.985 201.416 184.173 202.823C183.361 204.229 182.312 205.079 181.028 205.372C179.736 205.677 178.308 205.378 176.744 204.475C176.441 204.3 176.149 204.107 175.866 203.895L179.688 197.275ZM174.157 214.458C175.199 213.718 176 212.863 176.56 211.893C177.204 210.777 177.198 210.031 176.543 209.653C176.228 209.471 175.916 209.452 175.606 209.596C175.296 209.741 174.924 210.092 174.489 210.649C173.518 211.883 172.61 212.644 171.765 212.932C170.932 213.227 170.073 213.119 169.188 212.608C168.315 212.104 167.819 211.365 167.702 210.392C167.59 209.438 167.888 208.349 168.595 207.125C169.442 205.658 170.497 204.529 171.761 203.739L173.281 205.223C172.092 205.911 171.155 206.849 170.469 208.037C169.86 209.092 169.907 209.822 170.61 210.228C170.937 210.417 171.243 210.448 171.526 210.321C171.822 210.2 172.207 209.857 172.68 209.289C173.668 208.081 174.579 207.33 175.412 207.035C176.238 206.752 177.075 206.856 177.924 207.346C178.76 207.829 179.232 208.538 179.339 209.472C179.451 210.426 179.143 211.534 178.415 212.795C177.687 214.056 176.774 215.105 175.677 215.942L174.157 214.458ZM169.802 218.137L167.24 222.574C168.035 223.017 168.751 223.164 169.387 223.014C170.029 222.883 170.549 222.472 170.948 221.781C171.333 221.114 171.429 220.458 171.235 219.813C171.035 219.18 170.557 218.621 169.802 218.137ZM168.184 217.202C167.433 216.85 166.706 216.794 166.002 217.034C165.302 217.293 164.736 217.798 164.302 218.55C163.784 219.447 163.494 220.468 163.431 221.612L161.443 221.192C161.588 219.82 162.011 218.529 162.711 217.316C163.537 215.885 164.651 214.977 166.054 214.591C167.45 214.217 168.9 214.464 170.403 215.332C171.931 216.214 172.893 217.319 173.29 218.647C173.687 219.976 173.48 221.343 172.668 222.75C171.856 224.156 170.807 225.006 169.523 225.299C168.231 225.604 166.803 225.305 165.239 224.402C164.936 224.227 164.644 224.034 164.362 223.822L168.184 217.202Z" fill="white"/>
</svg>
