<svg width="272" height="272" viewBox="0 0 272 272" fill="none" xmlns="http://www.w3.org/2000/svg">
<path d="M215.351 26.7829C238.415 43.5402 255.583 67.169 264.393 94.2829C273.202 121.397 273.202 150.604 264.393 177.717L136 136L215.351 26.7829Z" fill="#FFFA87" stroke="black" stroke-width="2"/>
<path d="M218.136 90.4975C217.806 89.4837 217.257 88.7875 216.487 88.4089C215.717 88.0303 214.829 88.0044 213.823 88.3311C212.818 88.6579 212.119 89.213 211.726 89.9966C211.337 90.7885 211.306 91.6913 211.636 92.7052C211.802 93.2162 212.032 93.6427 212.325 93.9848L214.921 93.1412L214.106 90.6314L215.429 90.2015L216.779 94.3557L211.895 95.9425C211.142 95.1119 210.581 94.1278 210.211 92.9903C209.727 91.4984 209.756 90.1722 210.299 89.0115C210.851 87.8481 211.835 87.0361 213.253 86.5755C214.679 86.1122 215.947 86.1739 217.058 86.7606C218.169 87.3473 218.969 88.3907 219.456 89.8909C219.815 90.9954 219.866 92.0496 219.609 93.0535L218.191 92.9399C218.395 92.0535 218.377 91.2393 218.136 90.4975ZM212.038 98.1906L221.31 95.1777L221.861 96.8716L212.588 99.8845L212.038 98.1906ZM221.094 99.5597L222.578 99.0776L223.128 100.771L221.644 101.254L221.094 99.5597ZM213.305 102.091L219.734 100.002L220.284 101.695L213.855 103.784L213.305 102.091ZM217.598 110.086L216.519 110.846C215.994 110.27 215.614 109.619 215.378 108.893C215.044 107.863 215.075 106.937 215.474 106.115C215.872 105.293 216.582 104.716 217.604 104.384C218.651 104.044 219.564 104.079 220.345 104.491C221.137 104.908 221.707 105.652 222.055 106.724C222.291 107.449 222.366 108.199 222.28 108.974L220.936 109.001C221.064 108.385 221.033 107.785 220.843 107.2C220.652 106.615 220.322 106.216 219.853 106.004C219.386 105.801 218.814 105.809 218.138 106.028C217.479 106.242 217.014 106.58 216.745 107.041C216.478 107.511 216.435 108.021 216.614 108.574C216.807 109.167 217.135 109.671 217.598 110.086ZM222.486 111.122C223.275 111.504 223.829 112.185 224.148 113.166C224.467 114.147 224.419 115.023 224.005 115.796C223.59 116.568 222.872 117.121 221.85 117.453C220.828 117.785 219.923 117.76 219.133 117.379C218.344 116.997 217.79 116.316 217.472 115.335C217.153 114.354 217.201 113.478 217.615 112.705C218.032 111.941 218.751 111.393 219.773 111.061C220.795 110.729 221.7 110.749 222.486 111.122ZM218.696 114.937C218.859 115.44 219.163 115.774 219.609 115.939C220.063 116.102 220.636 116.07 221.328 115.845C222.02 115.62 222.498 115.31 222.762 114.915C223.033 114.517 223.087 114.066 222.924 113.564C222.763 113.069 222.456 112.741 222.002 112.578C221.557 112.413 220.988 112.443 220.296 112.668C219.603 112.893 219.121 113.204 218.85 113.603C218.586 113.998 218.535 114.443 218.696 114.937ZM225.387 122.7C225.478 121.914 225.416 121.192 225.202 120.532C224.956 119.774 224.61 119.467 224.165 119.612C223.95 119.681 223.812 119.817 223.75 120.02C223.689 120.222 223.696 120.539 223.772 120.969C223.937 121.927 223.911 122.66 223.694 123.168C223.484 123.674 223.079 124.024 222.477 124.22C221.884 124.413 221.339 124.334 220.843 123.985C220.357 123.642 219.98 123.054 219.709 122.221C219.385 121.224 219.303 120.271 219.464 119.362L220.776 119.278C220.599 120.109 220.642 120.929 220.905 121.737C221.138 122.454 221.493 122.735 221.972 122.58C222.194 122.507 222.335 122.38 222.394 122.196C222.461 122.011 222.462 121.691 222.397 121.239C222.251 120.284 222.282 119.554 222.492 119.048C222.704 118.551 223.098 118.209 223.675 118.021C224.244 117.836 224.765 117.913 225.24 118.251C225.725 118.594 226.107 119.195 226.385 120.052C226.664 120.909 226.768 121.764 226.699 122.616L225.387 122.7ZM225.275 126.227L226.256 129.244C226.789 129.062 227.152 128.793 227.347 128.438C227.552 128.089 227.579 127.68 227.426 127.21C227.279 126.756 227.017 126.441 226.64 126.262C226.266 126.092 225.811 126.081 225.275 126.227ZM224.175 126.585C223.702 126.784 223.375 127.095 223.194 127.519C223.023 127.948 223.021 128.418 223.187 128.929C223.385 129.539 223.735 130.095 224.235 130.598L223.218 131.338C222.647 130.704 222.228 129.974 221.96 129.15C221.644 128.177 221.688 127.288 222.091 126.483C222.498 125.686 223.212 125.121 224.234 124.789C225.272 124.451 226.179 124.466 226.955 124.834C227.731 125.202 228.274 125.864 228.584 126.82C228.895 127.776 228.852 128.61 228.454 129.322C228.06 130.043 227.331 130.576 226.268 130.922C226.061 130.988 225.851 131.043 225.637 131.085L224.175 126.585Z" fill="black"/>
<path d="M264.393 177.717C255.583 204.831 238.415 228.46 215.351 245.217C192.286 261.975 164.509 271 136 271L136 136L264.393 177.717Z" fill="#FFAC5F" stroke="black" stroke-width="2"/>
<path d="M208.077 197.57C208.939 196.944 209.432 196.206 209.554 195.356C209.676 194.507 209.426 193.655 208.805 192.799C208.183 191.944 207.439 191.451 206.573 191.32C205.699 191.194 204.831 191.444 203.969 192.071C203.534 192.386 203.199 192.737 202.965 193.121L204.569 195.33L206.704 193.779L207.522 194.904L203.988 197.472L200.97 193.317C201.527 192.345 202.29 191.507 203.257 190.804C204.526 189.882 205.797 189.5 207.069 189.658C208.345 189.823 209.422 190.508 210.298 191.714C211.179 192.927 211.513 194.153 211.298 195.391C211.083 196.629 210.338 197.711 209.062 198.638C208.122 199.321 207.136 199.695 206.101 199.761L205.771 198.378C206.677 198.298 207.446 198.029 208.077 197.57ZM198.876 194.148L204.607 202.036L203.166 203.083L197.435 195.195L198.876 194.148ZM200.373 203.184L201.289 204.446L199.849 205.493L198.932 204.231L200.373 203.184ZM195.559 196.558L199.532 202.027L198.091 203.074L194.118 197.605L195.559 196.558ZM189.281 203.111L188.224 202.32C188.611 201.643 189.113 201.081 189.73 200.632C190.606 199.996 191.497 199.74 192.401 199.864C193.306 199.989 194.074 200.486 194.706 201.355C195.353 202.246 195.601 203.126 195.451 203.996C195.299 204.877 194.767 205.649 193.856 206.312C193.239 206.76 192.549 207.063 191.785 207.221L191.344 205.951C191.969 205.883 192.531 205.667 193.029 205.306C193.526 204.944 193.804 204.507 193.86 203.995C193.909 203.488 193.725 202.947 193.307 202.372C192.9 201.811 192.435 201.473 191.913 201.36C191.384 201.251 190.885 201.368 190.415 201.709C189.911 202.076 189.532 202.543 189.281 203.111ZM190.009 212.85L188.263 214.119L188.551 211.13L189.813 210.213L190.009 212.85ZM189.806 208.081C189.687 208.949 189.21 209.687 188.376 210.293C187.542 210.899 186.693 211.125 185.83 210.969C184.968 210.814 184.221 210.302 183.589 209.432C182.957 208.563 182.701 207.694 182.82 206.826C182.939 205.957 183.415 205.22 184.25 204.614C185.084 204.007 185.933 203.782 186.795 203.937C187.651 204.098 188.395 204.612 189.026 205.482C189.658 206.351 189.918 207.218 189.806 208.081ZM185.006 205.655C184.579 205.966 184.355 206.358 184.336 206.833C184.321 207.315 184.528 207.85 184.956 208.439C185.384 209.028 185.827 209.387 186.284 209.515C186.747 209.65 187.192 209.563 187.62 209.252C188.04 208.946 188.258 208.552 188.272 208.071C188.291 207.596 188.087 207.064 187.659 206.475C187.231 205.886 186.786 205.524 186.323 205.389C185.866 205.261 185.427 205.349 185.006 205.655ZM180.204 207.714L185.935 215.602L184.494 216.649L178.763 208.761L180.204 207.714ZM181.7 216.75L182.617 218.012L181.176 219.059L180.259 217.797L181.7 216.75ZM176.886 210.124L180.86 215.593L179.419 216.64L175.446 211.171L176.886 210.124ZM172.851 219.387C173.626 219.231 174.295 218.949 174.856 218.541C175.501 218.073 175.686 217.649 175.411 217.27C175.278 217.088 175.106 216.999 174.895 217.003C174.683 217.006 174.384 217.111 173.998 217.317C173.138 217.77 172.433 217.972 171.882 217.922C171.337 217.879 170.878 217.601 170.507 217.089C170.14 216.585 170.046 216.042 170.224 215.463C170.401 214.895 170.844 214.354 171.552 213.839C172.4 213.223 173.281 212.851 174.195 212.722L174.681 213.944C173.835 214.033 173.069 214.328 172.382 214.827C171.772 215.27 171.615 215.695 171.91 216.102C172.048 216.291 172.213 216.386 172.405 216.385C172.603 216.391 172.907 216.294 173.317 216.092C174.18 215.658 174.884 215.462 175.43 215.505C175.968 215.553 176.415 215.823 176.772 216.313C177.124 216.797 177.212 217.317 177.037 217.872C176.86 218.44 176.407 218.989 175.678 219.519C174.949 220.048 174.168 220.412 173.337 220.609L172.851 219.387ZM169.462 220.371L166.896 222.236C167.234 222.686 167.602 222.949 167.999 223.025C168.395 223.112 168.793 223.011 169.192 222.72C169.578 222.44 169.797 222.093 169.85 221.68C169.896 221.271 169.767 220.835 169.462 220.371ZM168.782 219.435C168.446 219.047 168.049 218.832 167.59 218.79C167.13 218.761 166.682 218.904 166.247 219.22C165.728 219.597 165.307 220.101 164.984 220.732L163.965 219.994C164.393 219.255 164.957 218.631 165.658 218.121C166.485 217.52 167.344 217.287 168.235 217.422C169.119 217.562 169.877 218.067 170.508 218.936C171.15 219.82 171.416 220.687 171.306 221.538C171.196 222.389 170.734 223.11 169.921 223.701C169.108 224.292 168.301 224.509 167.501 224.351C166.693 224.198 165.961 223.67 165.304 222.765C165.177 222.59 165.06 222.407 164.954 222.217L168.782 219.435Z" fill="black"/>
<path d="M7.60726 177.717C-1.20256 150.604 -1.20256 121.397 7.60727 94.2829C16.4171 67.169 33.5845 43.5402 56.6489 26.7829L136 136L7.60726 177.717Z" fill="#FF5858" stroke="black" stroke-width="2"/>
<path d="M38.0832 139.065C37.7537 140.079 37.7892 140.965 38.1897 141.724C38.5901 142.483 39.2931 143.026 40.2987 143.353C41.3043 143.679 42.1961 143.641 42.9741 143.238C43.7548 142.826 44.3099 142.114 44.6393 141.1C44.8054 140.589 44.8702 140.109 44.8339 139.659L42.2376 138.816L41.4221 141.326L40.0991 140.896L41.4489 136.742L46.3326 138.328C46.4534 139.443 46.3291 140.569 45.9595 141.706C45.4747 143.198 44.6715 144.254 43.5498 144.874C42.4198 145.491 41.1459 145.569 39.7282 145.108C38.3023 144.645 37.3123 143.85 36.7584 142.722C36.2044 141.594 36.1711 140.28 36.6586 138.78C37.0174 137.676 37.5959 136.793 38.3939 136.132L39.4739 137.057C38.7878 137.654 38.3242 138.323 38.0832 139.065ZM47.5386 136.426L38.2658 133.413L38.8161 131.719L48.0889 134.732L47.5386 136.426ZM41.0166 129.995L39.5329 129.513L40.0833 127.819L41.5669 128.301L41.0166 129.995ZM48.8057 132.526L42.3766 130.437L42.9269 128.743L49.3561 130.832L48.8057 132.526ZM50.0323 123.534L51.3521 123.553C51.4375 124.328 51.3623 125.078 51.1266 125.804C50.7919 126.834 50.2219 127.564 49.4166 127.995C48.6114 128.426 47.6977 128.476 46.6756 128.144C45.6288 127.804 44.9106 127.238 44.5209 126.446C44.1256 125.643 44.102 124.706 44.4502 123.634C44.6859 122.909 45.066 122.258 45.5906 121.681L46.6941 122.45C46.2286 122.873 45.9008 123.377 45.7107 123.962C45.5205 124.547 45.5532 125.063 45.8088 125.511C46.067 125.95 46.5341 126.28 47.2099 126.499C47.8693 126.714 48.4435 126.713 48.9325 126.499C49.4241 126.276 49.7596 125.888 49.9391 125.336C50.1319 124.742 50.163 124.142 50.0323 123.534ZM46.6866 119.822C46.2724 119.05 46.2246 118.173 46.5433 117.192C46.862 116.211 47.416 115.53 48.2051 115.149C48.9943 114.767 49.8999 114.743 50.922 115.075C51.9441 115.407 52.6622 115.959 53.0765 116.732C53.4907 117.504 53.5385 118.381 53.2198 119.362C52.9011 120.342 52.3471 121.024 51.5579 121.405C50.7715 121.778 49.8672 121.799 48.8451 121.467C47.823 121.135 47.1035 120.586 46.6866 119.822ZM51.9957 118.964C52.1591 118.461 52.1091 118.012 51.8457 117.617C51.5741 117.218 51.0921 116.907 50.3998 116.682C49.7074 116.457 49.1385 116.427 48.693 116.592C48.2393 116.755 47.9307 117.087 47.7673 117.59C47.6067 118.085 47.6621 118.531 47.9337 118.929C48.1971 119.324 48.675 119.635 49.3673 119.859C50.0597 120.084 50.6328 120.116 51.0865 119.953C51.532 119.788 51.8351 119.458 51.9957 118.964ZM48.7397 110.433C49.0075 109.608 49.5665 109.052 50.4166 108.763L50.4247 108.738L49.5342 108.408L50.0203 106.912L55.7941 108.788C58.1267 109.546 58.9275 111.05 58.1964 113.3C57.9553 114.042 57.604 114.703 57.1425 115.282L56.0233 114.604C56.4634 114.09 56.7798 113.537 56.9727 112.944C57.1816 112.301 57.1639 111.78 56.9197 111.382C56.6755 110.984 56.1413 110.651 55.317 110.383L54.8595 110.234L54.8515 110.259C55.3335 110.935 55.4393 111.689 55.1688 112.522C54.9331 113.247 54.4478 113.759 53.7128 114.058C52.9723 114.346 52.1116 114.33 51.1307 114.012C50.0921 113.674 49.3691 113.193 48.9614 112.569C48.5565 111.936 48.4826 111.224 48.7397 110.433ZM51.6329 112.466C52.251 112.667 52.7802 112.693 53.2203 112.545C53.6549 112.385 53.9418 112.091 54.0811 111.662C54.2284 111.209 54.1772 110.792 53.9277 110.41C53.6781 110.028 53.2525 109.739 52.6508 109.544L52.5271 109.504C51.9254 109.308 51.4114 109.291 50.9851 109.454C50.5588 109.616 50.272 109.924 50.1247 110.377C49.9774 110.83 50.0312 111.24 50.2861 111.605C50.541 111.97 50.9899 112.257 51.6329 112.466ZM49.099 101.67L50.3101 103.075L49.7396 104.831L48.1109 102.566L48.834 100.34L51.4831 99.465L50.9127 101.221L49.107 101.646L49.099 101.67ZM53.6499 104.912L54.6301 101.895C54.0917 101.73 53.6395 101.733 53.2735 101.906C52.902 102.068 52.6399 102.383 52.4873 102.853C52.34 103.307 52.3664 103.716 52.5665 104.082C52.7693 104.439 53.1304 104.716 53.6499 104.912ZM54.7503 105.27C55.25 105.387 55.6976 105.327 56.0932 105.091C56.4833 104.844 56.7613 104.465 56.9274 103.954C57.1256 103.344 57.1699 102.689 57.0604 101.988L58.3184 101.987C58.4071 102.836 58.3175 103.672 58.0497 104.496C57.7337 105.469 57.1757 106.163 56.3758 106.577C55.5786 106.983 54.669 107.02 53.6469 106.688C52.6084 106.351 51.8834 105.805 51.4721 105.052C51.0607 104.299 51.0104 103.444 51.3211 102.488C51.6317 101.532 52.1571 100.882 52.8973 100.54C53.6401 100.189 54.5431 100.186 55.6064 100.531C55.8125 100.598 56.0145 100.678 56.2125 100.769L54.7503 105.27ZM52.864 98.1598L53.3541 96.6514L54.2647 96.92L54.2728 96.8953C54.0316 96.5435 53.8793 96.1569 53.8158 95.7353C53.755 95.3055 53.7876 94.8968 53.9134 94.5094C54.1545 93.7676 54.562 93.2986 55.1361 93.1024C55.7046 92.8953 56.5081 92.9604 57.5466 93.2979L61.1692 94.4749L60.655 96.0575L57.1932 94.9327C56.4843 94.7023 55.9795 94.6294 55.6786 94.7139C55.3696 94.7958 55.1454 95.051 55.0061 95.4796C54.8883 95.8423 54.9653 96.2363 55.2371 96.6618C55.5116 97.0791 55.8961 97.368 56.3907 97.5287L59.8154 98.6415L59.2932 100.249L52.864 98.1598ZM58.3497 90.4476L59.3299 87.4309C58.7915 87.265 58.3393 87.2685 57.9734 87.4412C57.6018 87.6029 57.3398 87.9187 57.1871 88.3886C57.0398 88.8419 57.0662 89.2514 57.2663 89.6172C57.4691 89.9747 57.8302 90.2515 58.3497 90.4476ZM59.4501 90.8051C59.9498 90.9219 60.3975 90.8624 60.7931 90.6264C61.1831 90.3795 61.4612 90.0006 61.6272 89.4895C61.8254 88.8796 61.8698 88.2242 61.7603 87.5234L63.0183 87.5221C63.1069 88.371 63.0174 89.2076 62.7495 90.0319C62.4335 91.0045 61.8756 91.698 61.0757 92.1125C60.2785 92.5187 59.3688 92.5557 58.3468 92.2236C57.3082 91.8862 56.5833 91.3408 56.1719 90.5875C55.7606 89.8342 55.7102 88.9794 56.0209 88.0233C56.3316 87.0672 56.857 86.4178 57.5971 86.075C58.3399 85.7241 59.243 85.7213 60.3062 86.0668C60.5123 86.1337 60.7143 86.2131 60.9124 86.3047L59.4501 90.8051ZM60.588 79.6886C60.0525 80.271 59.6776 80.8919 59.4634 81.5513C59.217 82.3096 59.3163 82.761 59.7614 82.9057C59.9757 82.9753 60.1674 82.9464 60.3363 82.8191C60.5053 82.6917 60.6855 82.4313 60.8772 82.038C61.3063 81.1659 61.7583 80.5883 62.233 80.3051C62.6995 80.0193 63.2336 79.9741 63.8353 80.1696C64.4287 80.3625 64.8236 80.7459 65.0198 81.32C65.2104 81.8831 65.1705 82.5809 64.9 83.4134C64.576 84.4108 64.082 85.2299 63.4181 85.8708L62.3069 85.168C62.9384 84.5986 63.3854 83.91 63.6479 83.1023C63.8809 82.3852 63.7583 81.949 63.2803 81.7936C63.0577 81.7213 62.8688 81.7419 62.7134 81.8555C62.5498 81.9663 62.3613 82.224 62.1479 82.6285C61.7049 83.487 61.2502 84.0592 60.7837 84.345C60.3199 84.6226 59.7995 84.6677 59.2225 84.4802C58.6538 84.2954 58.2768 83.9269 58.0918 83.3747C57.9011 82.8115 57.9451 82.1013 58.2236 81.2441C58.5021 80.3869 58.9198 79.6341 59.4768 78.9858L60.588 79.6886ZM62.7514 76.9006L63.7316 73.8839C63.1932 73.718 62.741 73.7215 62.375 73.8942C62.0035 74.056 61.7414 74.3718 61.5888 74.8416C61.4415 75.2949 61.4679 75.7045 61.668 76.0702C61.8708 76.4277 62.2319 76.7045 62.7514 76.9006ZM63.8518 77.2582C64.3515 77.375 64.7991 77.3154 65.1948 77.0794C65.5848 76.8325 65.8628 76.4536 66.0289 75.9425C66.2271 75.3326 66.2714 74.6772 66.162 73.9764L67.4199 73.9751C67.5086 74.8241 67.419 75.6607 67.1512 76.4849C66.8352 77.4575 66.2772 78.151 65.4774 78.5655C64.6802 78.9717 63.7705 79.0087 62.7485 78.6766C61.7099 78.3392 60.9849 77.7938 60.5736 77.0405C60.1623 76.2872 60.1119 75.4325 60.4226 74.4763C60.7332 73.5202 61.2586 72.8708 61.9988 72.528C62.7416 72.1771 63.6446 72.1743 64.7079 72.5198C64.914 72.5868 65.116 72.6661 65.3141 72.7578L63.8518 77.2582Z" fill="black"/>
<path d="M136 271C107.491 271 79.7133 261.975 56.6489 245.217C33.5845 228.46 16.4171 204.831 7.60726 177.717L136 136V271Z" fill="#87FFD4" stroke="black" stroke-width="2"/>
<path d="M104.734 227.221C105.596 227.848 106.45 228.088 107.295 227.942C108.141 227.795 108.874 227.294 109.496 226.439C110.117 225.584 110.357 224.724 110.213 223.859C110.063 222.989 109.557 222.241 108.695 221.615C108.26 221.299 107.823 221.089 107.385 220.984L105.78 223.193L107.915 224.744L107.098 225.87L103.564 223.302L106.582 219.148C107.679 219.377 108.712 219.844 109.679 220.547C110.949 221.469 111.704 222.559 111.947 223.817C112.185 225.082 111.866 226.318 110.989 227.524C110.108 228.737 109.046 229.433 107.802 229.611C106.558 229.789 105.298 229.415 104.022 228.488C103.083 227.805 102.422 226.982 102.04 226.019L103.253 225.278C103.609 226.115 104.103 226.763 104.734 227.221ZM105.145 217.413L99.4143 225.301L97.9734 224.254L103.704 216.366L105.145 217.413ZM97.0138 221.628L96.0969 222.891L94.656 221.844L95.5729 220.582L97.0138 221.628ZM101.828 215.003L97.8543 220.472L96.4135 219.425L100.387 213.956L101.828 215.003ZM93.6553 211.058L94.081 209.808C94.8444 209.966 95.5347 210.27 96.1517 210.718C97.0281 211.355 97.5468 212.123 97.7078 213.022C97.8688 213.921 97.6335 214.805 97.0018 215.674C96.3549 216.565 95.5946 217.073 94.7211 217.199C93.8355 217.327 92.9369 217.06 92.0254 216.397C91.4084 215.949 90.9067 215.386 90.5202 214.709L91.5922 213.897C91.8505 214.471 92.2286 214.938 92.7264 215.3C93.2242 215.661 93.7255 215.79 94.2301 215.685C94.7276 215.575 95.1853 215.233 95.603 214.658C96.0106 214.097 96.1877 213.551 96.1346 213.02C96.0745 212.483 95.8095 212.044 95.3397 211.703C94.8349 211.336 94.2734 211.121 93.6553 211.058ZM89.0911 213.092C88.2284 213.248 87.3799 213.022 86.5455 212.416C85.7112 211.81 85.2345 211.072 85.1156 210.204C84.9967 209.336 85.253 208.467 85.8847 207.597C86.5164 206.728 87.2635 206.215 88.1262 206.06C88.9889 205.905 89.8374 206.13 90.6718 206.737C91.5062 207.343 91.9828 208.08 92.1017 208.949C92.2137 209.812 91.9538 210.678 91.3221 211.548C90.6904 212.417 89.9468 212.932 89.0911 213.092ZM89.9153 207.778C89.4876 207.467 89.045 207.376 88.5876 207.504C88.1251 207.639 87.6798 208.002 87.2519 208.591C86.824 209.18 86.6197 209.711 86.6391 210.186C86.6533 210.668 86.8743 211.064 87.302 211.375C87.7227 211.68 88.1643 211.766 88.6268 211.63C89.0843 211.502 89.527 211.143 89.9549 210.554C90.3828 209.965 90.5896 209.43 90.5754 208.948C90.556 208.474 90.336 208.084 89.9153 207.778ZM80.7955 208.238C80.0943 207.729 79.7378 207.025 79.7259 206.127L79.7049 206.112L79.1155 206.857L77.8429 205.932L81.4114 201.021C82.853 199.037 84.5309 198.74 86.445 200.131C87.0761 200.589 87.5956 201.127 88.0037 201.745L87.013 202.6C86.661 202.023 86.2326 201.551 85.7278 201.184C85.1809 200.787 84.6803 200.643 84.226 200.752C83.7718 200.861 83.2899 201.266 82.7805 201.967L82.4978 202.357L82.5188 202.372C83.3107 202.122 84.0608 202.255 84.7689 202.769C85.3859 203.218 85.723 203.837 85.7801 204.629C85.825 205.422 85.5444 206.236 84.9382 207.07C84.2964 207.954 83.6155 208.493 82.8955 208.687C82.1686 208.877 81.4686 208.727 80.7955 208.238ZM83.6236 206.115C84.0056 205.589 84.194 205.094 84.1887 204.63C84.1713 204.167 83.9803 203.803 83.6157 203.538C83.23 203.258 82.8171 203.178 82.3769 203.297C81.9366 203.416 81.5306 203.732 81.1587 204.244L81.0823 204.349C80.7104 204.861 80.5357 205.345 80.5582 205.8C80.5808 206.256 80.7848 206.624 81.1705 206.904C81.5561 207.184 81.962 207.259 82.3882 207.13C82.8145 207 83.2262 206.662 83.6236 206.115ZM72.5729 205.189L74.2835 204.471L75.7769 205.556L73.1193 206.405L71.2262 205.03L71.2124 202.24L72.7059 203.325L72.5519 205.174L72.5729 205.189ZM77.0626 201.862L74.4964 199.998C74.1723 200.459 74.0358 200.89 74.087 201.291C74.126 201.695 74.3454 202.042 74.745 202.332C75.1307 202.612 75.5283 202.714 75.938 202.636C76.3406 202.554 76.7155 202.296 77.0626 201.862ZM77.7426 200.926C78.0081 200.487 78.0898 200.043 77.9876 199.594C77.8734 199.147 77.5989 198.765 77.1642 198.449C76.6453 198.072 76.0357 197.828 75.3354 197.715L75.7229 196.518C76.5577 196.696 77.3257 197.04 78.0268 197.55C78.8542 198.151 79.3413 198.896 79.4883 199.784C79.6283 200.668 79.3824 201.545 78.7507 202.414C78.1089 203.298 77.3662 203.818 76.5226 203.977C75.679 204.135 74.8506 203.919 74.0373 203.328C73.2239 202.737 72.7687 202.037 72.6714 201.227C72.5672 200.412 72.8436 199.552 73.5008 198.648C73.6281 198.473 73.766 198.305 73.9144 198.145L77.7426 200.926ZM70.3978 200.523L69.1147 199.591L69.6515 198.808L69.6305 198.793C69.2214 198.913 68.8066 198.939 68.3861 198.869C67.9585 198.794 67.5799 198.637 67.2504 198.397C66.6193 197.939 66.2992 197.406 66.29 196.8C66.2687 196.195 66.579 195.451 67.2208 194.567L69.4597 191.486L70.8059 192.464L68.6664 195.409C68.2283 196.012 68.0029 196.469 67.9903 196.782C67.9726 197.101 68.1461 197.393 68.5107 197.658C68.8192 197.882 69.2178 197.93 69.7064 197.803C70.1881 197.671 70.5817 197.395 70.8874 196.974L73.004 194.061L74.3712 195.054L70.3978 200.523ZM62.9355 196.869L62.0186 198.131L60.5777 197.084L61.4947 195.822L62.9355 196.869ZM67.7495 190.243L63.7761 195.712L62.3352 194.665L66.3086 189.196L67.7495 190.243ZM60.6925 192.46C59.8299 192.615 58.9813 192.389 58.147 191.783C57.3126 191.177 56.836 190.44 56.717 189.571C56.5981 188.703 56.8545 187.834 57.4861 186.964C58.1178 186.095 58.865 185.583 59.7277 185.427C60.5903 185.272 61.4389 185.498 62.2732 186.104C63.1076 186.71 63.5843 187.447 63.7032 188.316C63.8151 189.179 63.5552 190.046 62.9236 190.915C62.2919 191.784 61.5482 192.299 60.6925 192.46ZM61.5168 187.145C61.0891 186.834 60.6465 186.743 60.189 186.871C59.7265 187.007 59.2813 187.369 58.8534 187.958C58.4255 188.547 58.2212 189.079 58.2405 189.553C58.2548 190.035 58.4758 190.431 58.9035 190.742C59.3242 191.048 59.7658 191.133 60.2283 190.998C60.6857 190.869 61.1284 190.511 61.5563 189.922C61.9842 189.333 62.1911 188.797 62.1768 188.316C62.1575 187.841 61.9374 187.451 61.5168 187.145Z" fill="black"/>
<path d="M56.6489 26.7829C79.7133 10.0256 107.491 1.00018 136 1.00018C164.509 1.00019 192.286 10.0256 215.351 26.7829L136 136L56.6489 26.7829Z" fill="#53C1FF" stroke="black" stroke-width="2"/>
<path d="M91.3568 43.823C90.2908 43.823 89.4588 44.1307 88.8608 44.746C88.2628 45.3613 87.9638 46.1977 87.9638 47.255C87.9638 48.3123 88.2758 49.1487 88.8998 49.764C89.5324 50.3793 90.3818 50.687 91.4478 50.687C91.9851 50.687 92.4618 50.6003 92.8778 50.427V47.697H90.2388V46.306H94.6068V51.441C93.5841 51.9003 92.4748 52.13 91.2788 52.13C89.7101 52.13 88.4578 51.6923 87.5218 50.817C86.5858 49.933 86.1178 48.7457 86.1178 47.255C86.1178 45.7557 86.5684 44.5683 87.4698 43.693C88.3711 42.8177 89.6104 42.38 91.1878 42.38C92.3491 42.38 93.3674 42.6573 94.2428 43.212L93.6968 44.525C92.9168 44.057 92.1368 43.823 91.3568 43.823ZM96.789 52V42.25H98.57V52H96.789ZM100.89 43.81V42.25H102.671V43.81H100.89ZM100.89 52V45.24H102.671V52H100.89ZM109.82 50.388L110.21 51.649C109.499 51.9697 108.763 52.13 108 52.13C106.917 52.13 106.046 51.8137 105.387 51.181C104.728 50.5483 104.399 49.6947 104.399 48.62C104.399 47.5193 104.715 46.6613 105.348 46.046C105.989 45.422 106.873 45.11 108 45.11C108.763 45.11 109.499 45.2703 110.21 45.591L109.82 46.878C109.274 46.566 108.693 46.41 108.078 46.41C107.463 46.41 106.982 46.6007 106.635 46.982C106.297 47.3633 106.128 47.9093 106.128 48.62C106.128 49.3133 106.306 49.8593 106.661 50.258C107.025 50.6567 107.497 50.856 108.078 50.856C108.702 50.856 109.283 50.7 109.82 50.388ZM112.317 46.059C112.923 45.4263 113.742 45.11 114.774 45.11C115.805 45.11 116.624 45.4263 117.231 46.059C117.837 46.6917 118.141 47.5453 118.141 48.62C118.141 49.6947 117.837 50.5483 117.231 51.181C116.624 51.8137 115.805 52.13 114.774 52.13C113.742 52.13 112.923 51.8137 112.317 51.181C111.719 50.5483 111.42 49.6947 111.42 48.62C111.42 47.5453 111.719 46.6917 112.317 46.059ZM114.774 50.843C115.302 50.843 115.714 50.6567 116.009 50.284C116.303 49.9027 116.451 49.348 116.451 48.62C116.451 47.892 116.303 47.3417 116.009 46.969C115.714 46.5877 115.302 46.397 114.774 46.397C114.254 46.397 113.846 46.5877 113.552 46.969C113.257 47.3417 113.11 47.892 113.11 48.62C113.11 49.348 113.257 49.9027 113.552 50.284C113.846 50.6567 114.254 50.843 114.774 50.843ZM119.479 45.24H121.065L121.091 46.189H121.117C121.377 45.851 121.698 45.5867 122.079 45.396C122.469 45.2053 122.868 45.11 123.275 45.11C124.055 45.11 124.627 45.3527 124.991 45.838C125.364 46.3147 125.55 47.099 125.55 48.191V52H123.886V48.36C123.886 47.6147 123.799 47.112 123.626 46.852C123.453 46.5833 123.141 46.449 122.69 46.449C122.309 46.449 121.958 46.644 121.637 47.034C121.325 47.424 121.169 47.879 121.169 48.399V52H119.479V45.24ZM128.509 48.074H131.681C131.672 47.5107 131.529 47.0817 131.252 46.787C130.983 46.4837 130.602 46.332 130.108 46.332C129.631 46.332 129.25 46.4837 128.964 46.787C128.687 47.0903 128.535 47.5193 128.509 48.074ZM128.509 49.231C128.552 49.7423 128.747 50.1497 129.094 50.453C129.449 50.7477 129.896 50.895 130.433 50.895C131.074 50.895 131.711 50.7347 132.344 50.414L132.734 51.61C131.954 51.9567 131.131 52.13 130.264 52.13C129.241 52.13 128.409 51.8137 127.768 51.181C127.135 50.5483 126.819 49.6947 126.819 48.62C126.819 47.528 127.114 46.67 127.703 46.046C128.292 45.422 129.09 45.11 130.095 45.11C131.1 45.11 131.88 45.409 132.435 46.007C132.998 46.605 133.28 47.463 133.28 48.581C133.28 48.7977 133.267 49.0143 133.241 49.231H128.509ZM135.257 46.059C135.864 45.4263 136.683 45.11 137.714 45.11C138.745 45.11 139.564 45.4263 140.171 46.059C140.778 46.6917 141.081 47.5453 141.081 48.62C141.081 49.6947 140.778 50.5483 140.171 51.181C139.564 51.8137 138.745 52.13 137.714 52.13C136.683 52.13 135.864 51.8137 135.257 51.181C134.659 50.5483 134.36 49.6947 134.36 48.62C134.36 47.5453 134.659 46.6917 135.257 46.059ZM137.714 50.843C138.243 50.843 138.654 50.6567 138.949 50.284C139.244 49.9027 139.391 49.348 139.391 48.62C139.391 47.892 139.244 47.3417 138.949 46.969C138.654 46.5877 138.243 46.397 137.714 46.397C137.194 46.397 136.787 46.5877 136.492 46.969C136.197 47.3417 136.05 47.892 136.05 48.62C136.05 49.348 136.197 49.9027 136.492 50.284C136.787 50.6567 137.194 50.843 137.714 50.843ZM144.821 45.11C145.688 45.11 146.39 45.4697 146.927 46.189H146.953L146.992 45.24H148.565V51.311C148.565 53.7637 147.382 54.99 145.016 54.99C144.236 54.99 143.5 54.86 142.806 54.6L143.105 53.326C143.729 53.586 144.353 53.716 144.977 53.716C145.653 53.716 146.143 53.5383 146.446 53.183C146.75 52.8277 146.901 52.2167 146.901 51.35V50.869H146.875C146.381 51.5363 145.697 51.87 144.821 51.87C144.059 51.87 143.422 51.5667 142.91 50.96C142.408 50.3447 142.156 49.5213 142.156 48.49C142.156 47.398 142.39 46.5617 142.858 45.981C143.335 45.4003 143.989 45.11 144.821 45.11ZM143.781 48.49C143.781 49.14 143.92 49.6513 144.197 50.024C144.483 50.388 144.852 50.57 145.302 50.57C145.779 50.57 146.16 50.3923 146.446 50.037C146.732 49.6817 146.875 49.1877 146.875 48.555V48.425C146.875 47.7923 146.732 47.2983 146.446 46.943C146.16 46.5877 145.779 46.41 145.302 46.41C144.826 46.41 144.453 46.5877 144.184 46.943C143.916 47.2983 143.781 47.814 143.781 48.49ZM153.266 42.744L152.304 44.33H150.458L152.109 42.081H154.449L156.1 44.33H154.254L153.292 42.744H153.266ZM151.589 48.074H154.761C154.752 47.5107 154.609 47.0817 154.332 46.787C154.063 46.4837 153.682 46.332 153.188 46.332C152.711 46.332 152.33 46.4837 152.044 46.787C151.767 47.0903 151.615 47.5193 151.589 48.074ZM151.589 49.231C151.632 49.7423 151.827 50.1497 152.174 50.453C152.529 50.7477 152.976 50.895 153.513 50.895C154.154 50.895 154.791 50.7347 155.424 50.414L155.814 51.61C155.034 51.9567 154.211 52.13 153.344 52.13C152.321 52.13 151.489 51.8137 150.848 51.181C150.215 50.5483 149.899 49.6947 149.899 48.62C149.899 47.528 150.194 46.67 150.783 46.046C151.372 45.422 152.17 45.11 153.175 45.11C154.18 45.11 154.96 45.409 155.515 46.007C156.078 46.605 156.36 47.463 156.36 48.581C156.36 48.7977 156.347 49.0143 156.321 49.231H151.589ZM157.768 45.24H159.354L159.38 46.189H159.406C159.666 45.851 159.987 45.5867 160.368 45.396C160.758 45.2053 161.157 45.11 161.564 45.11C162.344 45.11 162.916 45.3527 163.28 45.838C163.653 46.3147 163.839 47.099 163.839 48.191V52H162.175V48.36C162.175 47.6147 162.088 47.112 161.915 46.852C161.742 46.5833 161.43 46.449 160.979 46.449C160.598 46.449 160.247 46.644 159.926 47.034C159.614 47.424 159.458 47.879 159.458 48.399V52H157.768V45.24ZM166.798 48.074H169.97C169.961 47.5107 169.818 47.0817 169.541 46.787C169.272 46.4837 168.891 46.332 168.397 46.332C167.92 46.332 167.539 46.4837 167.253 46.787C166.976 47.0903 166.824 47.5193 166.798 48.074ZM166.798 49.231C166.841 49.7423 167.036 50.1497 167.383 50.453C167.738 50.7477 168.185 50.895 168.722 50.895C169.363 50.895 170 50.7347 170.633 50.414L171.023 51.61C170.243 51.9567 169.42 52.13 168.553 52.13C167.53 52.13 166.698 51.8137 166.057 51.181C165.424 50.5483 165.108 49.6947 165.108 48.62C165.108 47.528 165.403 46.67 165.992 46.046C166.581 45.422 167.379 45.11 168.384 45.11C169.389 45.11 170.169 45.409 170.724 46.007C171.287 46.605 171.569 47.463 171.569 48.581C171.569 48.7977 171.556 49.0143 171.53 49.231H166.798ZM177.722 46.878C177.003 46.5487 176.296 46.384 175.603 46.384C174.806 46.384 174.407 46.618 174.407 47.086C174.407 47.3113 174.494 47.4847 174.667 47.606C174.84 47.7273 175.144 47.8183 175.577 47.879C176.539 48.0177 177.228 48.269 177.644 48.633C178.06 48.9883 178.268 49.4823 178.268 50.115C178.268 50.739 178.025 51.233 177.54 51.597C177.063 51.9523 176.387 52.13 175.512 52.13C174.463 52.13 173.532 51.9133 172.717 51.48L173.042 50.206C173.779 50.6307 174.572 50.843 175.421 50.843C176.175 50.843 176.552 50.5917 176.552 50.089C176.552 49.855 176.474 49.6817 176.318 49.569C176.162 49.4477 175.859 49.348 175.408 49.27C174.455 49.114 173.77 48.8583 173.354 48.503C172.947 48.1477 172.743 47.6667 172.743 47.06C172.743 46.462 172.977 45.9897 173.445 45.643C173.922 45.2877 174.611 45.11 175.512 45.11C176.413 45.11 177.258 45.2747 178.047 45.604L177.722 46.878ZM181.042 48.074H184.214C184.205 47.5107 184.062 47.0817 183.785 46.787C183.516 46.4837 183.135 46.332 182.641 46.332C182.164 46.332 181.783 46.4837 181.497 46.787C181.22 47.0903 181.068 47.5193 181.042 48.074ZM181.042 49.231C181.085 49.7423 181.28 50.1497 181.627 50.453C181.982 50.7477 182.429 50.895 182.966 50.895C183.607 50.895 184.244 50.7347 184.877 50.414L185.267 51.61C184.487 51.9567 183.664 52.13 182.797 52.13C181.774 52.13 180.942 51.8137 180.301 51.181C179.668 50.5483 179.352 49.6947 179.352 48.62C179.352 47.528 179.647 46.67 180.236 46.046C180.825 45.422 181.623 45.11 182.628 45.11C183.633 45.11 184.413 45.409 184.968 46.007C185.531 46.605 185.813 47.463 185.813 48.581C185.813 48.7977 185.8 49.0143 185.774 49.231H181.042Z" fill="black"/>
</svg>
